<svg width="20" height="23" viewBox="0 0 20 23" fill="none" xmlns="http://www.w3.org/2000/svg">
<g clip-path="url(#clip0_303_1871)">
<path d="M10.0045 6.29478C7.16522 6.29478 4.87505 8.58496 4.87505 11.4242C4.87505 14.2635 7.16522 16.5537 10.0045 16.5537C12.8438 16.5537 15.134 14.2635 15.134 11.4242C15.134 8.58496 12.8438 6.29478 10.0045 6.29478ZM10.0045 14.7591C8.16969 14.7591 6.66969 13.2635 6.66969 11.4242C6.66969 9.58496 8.16522 8.08942 10.0045 8.08942C11.8438 8.08942 13.3393 9.58496 13.3393 11.4242C13.3393 13.2635 11.8393 14.7591 10.0045 14.7591ZM16.5402 6.08496C16.5402 6.75014 16.0045 7.28139 15.3438 7.28139C14.6786 7.28139 14.1474 6.74567 14.1474 6.08496C14.1474 5.42424 14.6831 4.88853 15.3438 4.88853C16.0045 4.88853 16.5402 5.42424 16.5402 6.08496ZM19.9375 7.29924C19.8616 5.69657 19.4956 4.27692 18.3215 3.10728C17.1518 1.93764 15.7322 1.57157 14.1295 1.49121C12.4777 1.39746 7.52683 1.39746 5.87505 1.49121C4.27683 1.5671 2.85719 1.93317 1.68309 3.10282C0.508981 4.27246 0.147374 5.6921 0.0670165 7.29478C-0.0267334 8.94656 -0.0267334 13.8975 0.0670165 15.5492C0.142909 17.1519 0.508981 18.5716 1.68309 19.7412C2.85719 20.9108 4.27237 21.2769 5.87505 21.3573C7.52683 21.451 12.4777 21.451 14.1295 21.3573C15.7322 21.2814 17.1518 20.9153 18.3215 19.7412C19.4911 18.5716 19.8572 17.1519 19.9375 15.5492C20.0313 13.8975 20.0313 8.95103 19.9375 7.29924ZM17.8036 17.3216C17.4554 18.1966 16.7813 18.8707 15.9018 19.2233C14.5849 19.7457 11.4599 19.6251 10.0045 19.6251C8.54915 19.6251 5.41969 19.7412 4.10719 19.2233C3.23219 18.8751 2.55809 18.201 2.20541 17.3216C1.68309 16.0046 1.80362 12.8796 1.80362 11.4242C1.80362 9.96888 1.68755 6.83942 2.20541 5.52692C2.55362 4.65192 3.22773 3.97782 4.10719 3.62514C5.42415 3.10282 8.54915 3.22335 10.0045 3.22335C11.4599 3.22335 14.5893 3.10728 15.9018 3.62514C16.7768 3.97335 17.4509 4.64746 17.8036 5.52692C18.3259 6.84389 18.2054 9.96888 18.2054 11.4242C18.2054 12.8796 18.3259 16.0091 17.8036 17.3216Z" fill="white"/>
</g>
<defs>
<clipPath id="clip0_303_1871">
<rect width="20" height="22.8571" fill="white"/>
</clipPath>
</defs>
</svg>
