<svg width="30" height="30" viewBox="0 0 30 30" fill="none" xmlns="http://www.w3.org/2000/svg">
<g clip-path="url(#clip0_303_1302)">
<path d="M28.4961 21.7161L21.233 17.4144C22.3152 15.0837 22.4603 12.4261 21.6381 9.99145C20.8159 7.55678 19.0894 5.53126 16.8156 4.33386C14.5419 3.13646 11.8949 2.85879 9.42218 3.55829C6.94946 4.25778 4.84019 5.88092 3.53066 8.09198C2.22112 10.303 1.81152 12.9328 2.38657 15.4374C2.96161 17.942 4.47732 20.1298 6.62016 21.5481C8.76301 22.9665 11.369 23.5071 13.8992 23.0579C16.4294 22.6087 18.6902 21.2043 20.2139 19.135L27.4771 23.4367C27.7049 23.5664 27.9747 23.6014 28.2281 23.5341C28.4815 23.4669 28.6984 23.3028 28.832 23.0771C28.9657 22.8515 29.0053 22.5825 28.9425 22.3279C28.8796 22.0733 28.7193 21.8536 28.4961 21.7161ZM14.1526 20.9576C12.6198 21.3501 11.005 21.2792 9.51248 20.754C8.01995 20.2288 6.71668 19.2728 5.76748 18.0069C4.81828 16.7409 4.26578 15.222 4.17985 13.6421C4.09392 12.0622 4.47842 10.4922 5.28473 9.13085C6.09104 7.76946 7.28294 6.67774 8.7097 5.99375C10.1365 5.30975 11.734 5.0642 13.3003 5.28815C14.8667 5.5121 16.3314 6.19549 17.5093 7.2519C18.6873 8.30831 19.5255 9.69029 19.918 11.2231C20.4418 13.2784 20.129 15.4575 19.0482 17.2825C17.9673 19.1074 16.2067 20.4291 14.1526 20.9576Z" fill="white"/>
</g>
<defs>
<clipPath id="clip0_303_1302">
<rect width="24" height="24" fill="white" transform="translate(0 6) rotate(-14.3631)"/>
</clipPath>
</defs>
</svg>
