<svg width="20" height="20" viewBox="0 0 20 20" fill="none" xmlns="http://www.w3.org/2000/svg">
<g clip-path="url(#clip0_303_1874)">
<path d="M19.9991 9.99911C19.9992 11.3124 19.7407 12.6128 19.2381 13.8261C18.7356 15.0394 17.9991 16.1418 17.0704 17.0704C16.1418 17.999 15.0394 18.7356 13.8261 19.2381C12.6128 19.7406 11.3124 19.9992 9.99911 19.9991C8.68593 19.9991 7.38562 19.7404 6.17241 19.2379C4.95921 18.7353 3.85687 17.9987 2.92836 17.0701C1.99984 16.1415 1.26333 15.0391 0.760882 13.8259C0.258432 12.6126 -0.000116958 11.3123 3.96895e-08 9.99911C3.96895e-08 7.34718 1.05347 4.80387 2.92867 2.92867C4.80387 1.05347 7.34718 3.96895e-08 9.99911 3.96895e-08C11.3123 -0.000116958 12.6126 0.258431 13.8259 0.760881C15.0391 1.26333 16.1415 1.99984 17.0701 2.92836C17.9987 3.85687 18.7353 4.9592 19.2379 6.17241C19.7404 7.38562 19.9991 8.68593 19.9991 9.99911ZM16.2575 6.12205C15.7876 6.32843 15.2894 6.46297 14.7795 6.52116C15.3139 6.20289 15.7142 5.70096 15.9056 5.10913C15.4034 5.40819 14.8529 5.61741 14.2788 5.72739C14.0393 5.47128 13.7495 5.26722 13.4277 5.1279C13.1058 4.98859 12.7587 4.917 12.408 4.91759C10.8437 4.91759 9.5421 6.32962 9.90557 8.06949C8.88544 8.01815 7.88751 7.7528 6.9766 7.29067C6.0657 6.82854 5.26219 6.17997 4.61826 5.38708C4.38809 5.77948 4.26777 6.2266 4.26993 6.68151C4.26887 7.10451 4.37263 7.52117 4.57193 7.89428C4.77122 8.26738 5.05986 8.58529 5.41203 8.8196C5.00567 8.80455 4.60871 8.6931 4.2539 8.49443V8.52561C4.25216 9.11742 4.45528 9.6916 4.82877 10.1507C5.20226 10.6097 5.72311 10.9254 6.3029 11.0441C5.92458 11.1418 5.52979 11.1579 5.14477 11.0913C5.30859 11.6012 5.62779 12.0472 6.05767 12.3667C6.48755 12.6862 7.00658 12.8632 7.5421 12.8731C6.6338 13.5852 5.51234 13.9712 4.35813 13.9688C4.15189 13.9703 3.94574 13.9595 3.74076 13.9367C4.91542 14.6907 6.28257 15.0901 7.6784 15.0869C12.3947 15.0869 14.9764 11.1804 14.9764 7.78976C14.9764 7.68018 14.9764 7.56615 14.9684 7.45746C15.4714 7.08975 15.9072 6.63798 16.2566 6.12205H16.2575Z" fill="white"/>
</g>
<defs>
<clipPath id="clip0_303_1874">
<rect width="20" height="20" fill="white"/>
</clipPath>
</defs>
</svg>
