<svg width="282" height="85" viewBox="0 0 282 85" fill="none" xmlns="http://www.w3.org/2000/svg">
<path d="M105.995 41.7964H98.2151V7.70166H111.948C113.537 7.70166 115.026 8.00608 116.446 8.64874C117.867 9.29139 119.085 10.1708 120.099 11.2532C121.148 12.3356 121.96 13.5871 122.568 15.0415C123.177 16.4621 123.482 17.9842 123.482 19.5401C123.482 21.096 123.177 22.6181 122.568 24.0387C121.96 25.4593 121.148 26.7446 120.099 27.827C119.051 28.9094 117.833 29.7888 116.446 30.4315C115.059 31.0741 113.537 31.3785 111.948 31.3785H105.961V41.7964H105.995ZM112.015 23.599C112.489 23.599 112.962 23.4637 113.402 23.2269C113.842 22.9902 114.248 22.6857 114.586 22.3137C114.924 21.9416 115.195 21.5019 115.398 21.0284C115.601 20.5548 115.702 20.0475 115.702 19.5739C115.702 19.1004 115.601 18.593 115.398 18.1195C115.195 17.646 114.924 17.2062 114.586 16.8342C114.248 16.4621 113.842 16.1577 113.402 15.9209C112.962 15.6842 112.489 15.5489 112.015 15.5489H106.028V23.6328H112.015V23.599Z" fill="white"/>
<path d="M152.503 41.7964H129.807V7.70166H152.503V14.9738H137.586V20.9607H149.729V28.2329H137.586V34.5242H152.503V41.7964Z" fill="white"/>
<path d="M171.884 7.70166H178.581L193.464 41.7964H188.458C187.95 41.7964 187.443 41.7287 186.936 41.5934C186.462 41.4581 185.989 41.2552 185.583 40.9846C185.177 40.714 184.805 40.4096 184.467 40.0375C184.128 39.6655 183.858 39.2257 183.655 38.7522L181.997 34.9639H168.434L166.81 38.7522C166.607 39.1919 166.371 39.564 165.999 39.936C165.66 40.3081 165.288 40.6125 164.849 40.8831C164.409 41.1537 163.969 41.3905 163.462 41.5258C162.954 41.6611 162.481 41.7625 161.974 41.7625H156.934L171.884 7.70166ZM171.546 27.9285H178.818L175.841 20.7916C175.706 20.4534 175.571 20.1489 175.503 19.8783C175.436 19.6077 175.368 19.3372 175.3 19.1342C175.233 18.8636 175.199 18.6269 175.165 18.4239C175.131 18.6607 175.097 18.8974 175.03 19.168C174.996 19.4048 174.928 19.6416 174.827 19.9122C174.725 20.1828 174.624 20.4872 174.522 20.8254L171.546 27.9285Z" fill="white"/>
<path d="M205.911 41.7964H198.132V7.70166H211.492C212.777 7.70166 213.961 7.87078 215.044 8.20902C216.126 8.54726 217.107 8.98698 217.986 9.56199C218.866 10.137 219.644 10.7797 220.32 11.5576C220.997 12.3356 221.572 13.1473 222.011 14.0268C222.451 14.9062 222.789 15.8194 223.026 16.7665C223.263 17.7136 223.364 18.6268 223.364 19.5401C223.364 20.4534 223.263 21.3328 223.06 22.246C222.857 23.1255 222.553 24.0049 222.113 24.8843C221.673 25.7299 221.132 26.5755 220.456 27.3535C219.779 28.1314 218.933 28.8756 217.986 29.552L227.085 41.8302H220.591H220.456C220.32 41.8302 220.083 41.7964 219.745 41.7625C219.407 41.7287 219.035 41.5934 218.595 41.4243C218.155 41.2552 217.716 40.9846 217.242 40.6463C216.769 40.3081 216.329 39.8007 215.889 39.1919L210.173 31.4462H205.911V41.7964ZM211.898 23.599C212.372 23.599 212.845 23.4637 213.285 23.2269C213.725 22.9902 214.13 22.6857 214.469 22.3137C214.807 21.9416 215.077 21.5019 215.28 21.0284C215.483 20.5548 215.585 20.0475 215.585 19.5739C215.585 19.1004 215.483 18.593 215.28 18.1195C215.077 17.646 214.807 17.2062 214.469 16.8342C214.13 16.4621 213.725 16.1577 213.285 15.9209C212.845 15.6842 212.372 15.5489 211.898 15.5489H205.911V23.6328H211.898V23.599Z" fill="white"/>
<path d="M232.159 41.7964V7.70166H239.938V34.5242H253.4V41.7964H232.159Z" fill="white"/>
<path d="M269.636 15.1769C269.23 15.1769 268.824 15.2107 268.418 15.2784C268.046 15.346 267.674 15.4813 267.369 15.6166C267.065 15.7857 266.828 15.9887 266.659 16.2254C266.49 16.4622 266.389 16.7328 266.389 17.071C266.389 17.5784 266.524 17.9843 266.761 18.2549C267.031 18.5255 267.403 18.7961 267.911 18.999C268.418 19.202 269.061 19.4387 269.839 19.6417C270.617 19.8446 271.496 20.149 272.545 20.4873C273.864 20.927 275.048 21.4682 276.164 22.1108C277.246 22.7535 278.193 23.4976 278.937 24.3771C279.715 25.2565 280.29 26.2036 280.73 27.2859C281.17 28.3683 281.373 29.586 281.373 30.9051C281.373 32.5625 281.034 34.0508 280.324 35.4375C279.614 36.8243 278.701 37.9743 277.517 38.9552C276.367 39.9361 275.014 40.7141 273.492 41.2553C271.97 41.7965 270.38 42.0671 268.756 42.0671C267.369 42.0671 266.016 41.8641 264.765 41.4582C263.514 41.0523 262.33 40.4773 261.281 39.7332C260.233 38.9891 259.319 38.1096 258.508 37.0949C257.73 36.0802 257.087 34.964 256.647 33.7463L259.116 32.3257C259.522 32.089 259.928 31.9198 260.402 31.7845C260.841 31.6492 261.315 31.5816 261.755 31.5816C262.431 31.5816 263.04 31.7169 263.615 32.0213C264.156 32.2919 264.697 32.6301 265.205 32.9346C265.712 33.239 266.253 33.5772 266.828 33.8478C267.403 34.1184 268.012 34.2875 268.722 34.2875C269.196 34.2875 269.703 34.2199 270.278 34.0508C270.853 33.9155 271.361 33.6787 271.834 33.4081C272.308 33.1375 272.714 32.7654 273.052 32.3595C273.39 31.9537 273.525 31.4463 273.525 30.9051C273.525 30.3978 273.39 29.958 273.086 29.6198C272.781 29.2816 272.409 29.011 271.902 28.7404C271.395 28.5036 270.82 28.2668 270.177 28.0639C269.534 27.8609 268.858 27.6242 268.147 27.3198C266.964 26.88 265.814 26.4065 264.664 25.8653C263.514 25.358 262.499 24.6815 261.586 23.9373C260.672 23.1594 259.962 22.2461 259.387 21.1299C258.812 20.0137 258.541 18.6608 258.541 17.0372C258.541 15.5151 258.846 14.1283 259.488 12.9445C260.131 11.7607 260.943 10.7459 261.958 9.90033C262.972 9.08856 264.156 8.4459 265.475 8.00618C266.794 7.56647 268.147 7.36353 269.568 7.36353C270.583 7.36353 271.564 7.53265 272.545 7.87089C273.492 8.20913 274.405 8.64884 275.284 9.19003C276.13 9.73121 276.942 10.3739 277.686 11.0504C278.43 11.7607 279.106 12.471 279.715 13.1813L277.314 15.2107C276.84 15.6166 276.333 15.921 275.825 16.0901C275.318 16.2593 274.743 16.3607 274.1 16.3607C273.593 16.3607 273.153 16.2931 272.781 16.1578C272.409 16.0225 272.037 15.8872 271.699 15.7519C271.361 15.6166 271.022 15.4475 270.684 15.346C270.38 15.2445 270.008 15.1769 269.636 15.1769Z" fill="white"/>
<path d="M119.829 75.6206H117.461L100.921 51.9775C100.853 51.9098 100.82 51.8084 100.752 51.7069C100.718 51.6054 100.684 51.504 100.65 51.4025C100.583 51.301 100.549 51.1657 100.549 51.0642V75.6544H98.1475V48.2568H99.8048C100.312 48.2568 100.718 48.3245 101.023 48.4598C101.327 48.5951 101.564 48.798 101.767 49.0686L116.886 70.7499C116.987 70.8852 117.055 71.0205 117.123 71.1896C117.19 71.3249 117.258 71.4602 117.292 71.5955C117.36 71.7308 117.393 71.8661 117.427 72.0352V48.2907H119.795V75.6206H119.829Z" fill="white"/>
<path d="M142.863 75.6204H126.526V48.2229H142.863V50.6244H128.927V60.6025H140.191V63.004H128.927V73.2527H142.863V75.6204Z" fill="white"/>
<path d="M145.4 50.5907V48.1892H165.83V50.5907H156.798V75.5867H154.397V50.5907H145.4Z" fill="white"/>
<path d="M178.446 71.1557C178.514 71.291 178.547 71.4601 178.615 71.6292C178.649 71.7983 178.683 72.0013 178.716 72.1704C178.75 72.3733 178.784 72.5424 178.818 72.7454C178.818 72.5424 178.852 72.3733 178.886 72.1704C178.919 72.0013 178.953 71.8321 178.987 71.663C179.021 71.4939 179.089 71.3248 179.156 71.1557L188.593 49.6097C188.762 49.2038 189.067 48.8656 189.439 48.595C189.811 48.3582 190.251 48.2229 190.724 48.2229H191.806L186.395 60.6364L191.164 71.1557C191.231 71.291 191.265 71.4601 191.333 71.6292C191.367 71.7983 191.401 72.0013 191.434 72.1704C191.468 72.3733 191.502 72.5424 191.536 72.7454C191.536 72.5424 191.57 72.3733 191.603 72.1704C191.637 72.0013 191.671 71.8321 191.705 71.663C191.773 71.4939 191.806 71.3248 191.874 71.1557L201.311 49.6097C201.48 49.2038 201.785 48.8656 202.157 48.595C202.529 48.3582 202.968 48.2229 203.442 48.2229H204.524L192.551 75.6204H190.521L185.752 65.135C185.617 64.7967 185.515 64.4923 185.481 64.2217C185.447 63.9511 185.414 63.7144 185.414 63.5114C185.414 63.3423 185.414 63.1732 185.447 63.0717C185.447 62.9702 185.481 62.8687 185.515 62.8011L179.9 75.6543H177.871L165.322 48.2567H166.405C166.878 48.2567 167.318 48.392 167.69 48.6288C168.062 48.8994 168.366 49.2038 168.535 49.6097L178.446 71.1557Z" fill="white"/>
<path d="M203.577 61.888C203.577 59.96 203.949 58.1335 204.66 56.4423C205.404 54.7511 206.385 53.2628 207.67 51.9775C208.955 50.6922 210.444 49.7113 212.135 48.9671C213.826 48.223 215.652 47.8848 217.58 47.8848C219.508 47.8848 221.335 48.2568 223.026 48.9671C224.717 49.7113 226.206 50.6922 227.491 51.9775C228.742 53.229 229.757 54.7172 230.501 56.4423C231.245 58.1335 231.584 59.96 231.584 61.888C231.584 63.8159 231.212 65.6424 230.501 67.3336C229.791 69.0248 228.776 70.5131 227.491 71.7984C226.239 73.0499 224.751 74.0646 223.026 74.8088C221.335 75.5529 219.508 75.8911 217.58 75.8911C215.652 75.8911 213.826 75.5191 212.135 74.8088C210.444 74.0985 208.955 73.0837 207.67 71.7984C206.385 70.5131 205.404 69.0587 204.66 67.3336C203.949 65.6424 203.577 63.8498 203.577 61.888ZM205.945 61.888C205.945 62.9703 206.08 63.9851 206.351 64.966C206.621 65.9468 207.027 66.8939 207.535 67.7395C208.042 68.619 208.651 69.3969 209.361 70.0734C210.072 70.7837 210.849 71.3925 211.729 71.8999C212.574 72.4073 213.522 72.8131 214.502 73.0837C215.483 73.3543 216.532 73.4896 217.58 73.4896C218.663 73.4896 219.678 73.3543 220.658 73.0837C221.639 72.8131 222.586 72.4073 223.432 71.8999C224.278 71.3925 225.089 70.7837 225.8 70.0734C226.51 69.3631 227.119 68.5851 227.626 67.7395C228.134 66.8601 228.54 65.9468 228.81 64.966C229.081 63.9851 229.216 62.9365 229.216 61.888C229.216 60.2982 228.912 58.7761 228.303 57.3555C227.694 55.9349 226.848 54.7172 225.8 53.6687C224.751 52.6201 223.534 51.7745 222.113 51.1657C220.692 50.5569 219.204 50.2525 217.58 50.2525C216.498 50.2525 215.483 50.3878 214.502 50.6583C213.522 50.9289 212.574 51.3348 211.729 51.8422C210.883 52.3495 210.072 52.9584 209.361 53.6687C208.651 54.379 208.042 55.157 207.535 56.0026C207.027 56.882 206.655 57.7952 206.351 58.7761C206.08 59.7909 205.945 60.8394 205.945 61.888Z" fill="white"/>
<path d="M239.431 75.6204H237.029V48.2229H246.635C247.718 48.2229 248.699 48.4258 249.646 48.8317C250.559 49.2376 251.405 49.7788 252.081 50.4891C252.791 51.1994 253.333 52.0112 253.738 52.9245C254.144 53.8715 254.347 54.8524 254.347 55.901C254.347 56.8481 254.178 57.7613 253.874 58.6407C253.569 59.5202 253.13 60.2981 252.555 61.0084C251.98 61.7187 251.303 62.2937 250.525 62.7335C249.747 63.1732 248.868 63.4776 247.954 63.5791L257.019 75.6543H255.903C254.584 75.6543 253.637 75.1807 252.994 74.1998L245.012 63.5791H239.465V75.6204H239.431ZM239.431 50.5906V61.1437H246.635C247.346 61.1437 248.056 61.0084 248.699 60.7378C249.341 60.4672 249.916 60.0952 250.39 59.6216C250.863 59.1481 251.235 58.5731 251.54 57.9304C251.81 57.2878 251.946 56.6113 251.946 55.8672C251.946 55.1568 251.81 54.4465 251.54 53.8377C251.269 53.195 250.897 52.6539 250.39 52.1803C249.916 51.7068 249.341 51.3347 248.699 51.0303C248.056 50.7597 247.379 50.6244 246.635 50.6244H239.431V50.5906Z" fill="white"/>
<path d="M263.48 75.6206H261.078V48.223H263.48V75.6206ZM275.961 49.6775C276.367 49.2378 276.773 48.8657 277.212 48.5951C277.652 48.3245 278.193 48.1892 278.836 48.1892H280.392L269.196 60.8056C269.061 60.9747 268.925 61.0762 268.824 61.1777C268.722 61.2791 268.655 61.3468 268.587 61.3806C268.52 61.4483 268.452 61.4483 268.384 61.4821C268.418 61.5159 268.486 61.5497 268.587 61.5836C268.655 61.6512 268.722 61.685 268.824 61.7865C268.925 61.8541 269.061 61.9894 269.196 62.1247L281.17 75.5529H279.479C278.836 75.5529 278.295 75.4176 277.855 75.147C277.415 74.8764 276.976 74.5382 276.603 74.0985L266.017 62.0571C265.915 61.9218 265.78 61.8203 265.712 61.7527C265.611 61.685 265.543 61.6174 265.475 61.5836C265.408 61.5159 265.34 61.5159 265.272 61.4821C265.34 61.4821 265.408 61.4483 265.475 61.3806C265.543 61.3468 265.611 61.2791 265.712 61.2115C265.814 61.1438 265.915 61.0085 266.05 60.8732L275.961 49.6775Z" fill="white"/>
<path d="M57.5923 19.1006C62.7294 19.1006 66.8939 14.9361 66.8939 9.79895C66.8939 4.6618 62.7294 0.497314 57.5923 0.497314C52.4551 0.497314 48.2906 4.6618 48.2906 9.79895C48.2906 14.9361 52.4551 19.1006 57.5923 19.1006Z" fill="#178D8E"/>
<path d="M10.3401 36.0801C15.4772 36.0801 19.6417 31.9156 19.6417 26.7784C19.6417 21.6413 15.4772 17.4768 10.3401 17.4768C5.20293 17.4768 1.03845 21.6413 1.03845 26.7784C1.03845 31.9156 5.20293 36.0801 10.3401 36.0801Z" fill="#F25C54"/>
<path d="M27.2521 83.3662C32.3892 83.3662 36.5537 79.2017 36.5537 74.0646C36.5537 68.9274 32.3892 64.7629 27.2521 64.7629C22.1149 64.7629 17.9504 68.9274 17.9504 74.0646C17.9504 79.2017 22.1149 83.3662 27.2521 83.3662Z" fill="#178D8E"/>
<path d="M74.6396 66.4543C79.7768 66.4543 83.9413 62.2898 83.9413 57.1527C83.9413 52.0156 79.7768 47.8511 74.6396 47.8511C69.5025 47.8511 65.338 52.0156 65.338 57.1527C65.338 62.2898 69.5025 66.4543 74.6396 66.4543Z" fill="#F25C54"/>
<path d="M58.9114 22.3138C58.9114 22.3138 53.3643 25.9668 46.0921 18.221L30.4653 2.15459C27.8271 -0.55134 23.5652 -0.720461 20.724 1.71488C17.5783 4.4208 17.3754 9.19 20.2843 12.1327L39.4964 31.683C42.3038 34.5243 46.87 34.5243 49.6774 31.683L58.9114 22.3138Z" fill="#178D8E"/>
<path d="M22.3138 25.2903C22.3138 25.2903 25.9668 30.8374 18.221 38.1096L2.15459 53.7702C-0.55134 56.4085 -0.720461 60.6703 1.71487 63.5115C4.4208 66.6572 9.19001 66.8601 12.1327 63.9512L31.683 44.7391C34.5243 41.9317 34.5243 37.3655 31.683 34.5581L22.3138 25.2903Z" fill="#F25C54"/>
<path d="M62.3615 58.5732C62.3615 58.5732 58.7085 53.026 66.4542 45.7538L82.5207 30.0933C85.2266 27.455 85.3957 23.1931 82.9604 20.3519C80.2545 17.2063 75.4853 17.0033 72.5426 19.9122L52.9922 39.1243C50.151 41.9317 50.151 46.498 52.9922 49.3054L62.3615 58.5732Z" fill="#F25C54"/>
<path d="M25.6285 62.0571C25.6285 62.0571 31.1757 58.4041 38.4479 66.1498L54.1084 82.2163C56.7467 84.9222 61.0086 85.0913 63.8498 82.656C66.9954 79.95 67.1984 75.1808 64.2895 72.2382L45.0774 52.6878C42.27 49.8466 37.7037 49.8466 34.8963 52.6878L25.6285 62.0571Z" fill="#178D8E"/>
</svg>
