<svg width="532" height="113" viewBox="0 0 532 113" fill="none" xmlns="http://www.w3.org/2000/svg">
<path d="M60.5322 40.8865C63.7073 40.8865 66.2813 38.3141 66.2813 35.1408C66.2813 31.9675 63.7073 29.395 60.5322 29.395C57.357 29.395 54.7831 31.9675 54.7831 35.1408C54.7831 38.3141 57.357 40.8865 60.5322 40.8865Z" fill="white"/>
<path d="M31.3701 51.3787C34.5452 51.3787 37.1192 48.8063 37.1192 45.633C37.1192 42.4597 34.5452 39.8872 31.3701 39.8872C28.1949 39.8872 25.621 42.4597 25.621 45.633C25.621 48.8063 28.1949 51.3787 31.3701 51.3787Z" fill="white"/>
<path d="M41.7851 80.524C44.9603 80.524 47.5342 77.9515 47.5342 74.7782C47.5342 71.6049 44.9603 69.0325 41.7851 69.0325C38.61 69.0325 36.036 71.6049 36.036 74.7782C36.036 77.9515 38.61 80.524 41.7851 80.524Z" fill="white"/>
<path d="M71.0306 70.0733C74.2057 70.0733 76.7797 67.5009 76.7797 64.3276C76.7797 61.1543 74.2057 58.5818 71.0306 58.5818C67.8555 58.5818 65.2815 61.1543 65.2815 64.3276C65.2815 67.5009 67.8555 70.0733 71.0306 70.0733Z" fill="white"/>
<path d="M61.3238 42.8434C61.3238 42.8434 57.9077 45.0917 53.4084 40.3036L43.7432 30.3942C42.1185 28.7288 39.4939 28.6039 37.7442 30.1444C35.8278 31.8099 35.6612 34.766 37.4525 36.5564L49.284 48.6308C50.9921 50.3795 53.825 50.3795 55.5747 48.6308L61.3238 42.8434Z" fill="white"/>
<path d="M38.744 44.717C38.744 44.717 40.9936 48.1312 36.2027 52.6279L26.2876 62.2874C24.6212 63.9112 24.4962 66.5343 26.0376 68.283C27.704 70.1983 30.6619 70.3648 32.4533 68.5744L44.5347 56.7498C46.2845 55.0428 46.2845 52.2115 44.5347 50.4628L38.744 44.717Z" fill="white"/>
<path d="M63.4484 65.2435C63.4484 65.2435 61.1987 61.8294 65.9897 57.3327L75.9048 47.6732C77.5712 46.0494 77.6962 43.4263 76.1547 41.6776C74.4883 39.7623 71.5305 39.5958 69.7391 41.3861L57.6576 53.2107C55.9079 54.9178 55.9079 57.7491 57.6576 59.4978L63.4484 65.2435Z" fill="white"/>
<path d="M40.7853 67.367C40.7853 67.367 44.2014 65.1187 48.7007 69.9068L58.3659 79.8161C59.9906 81.4816 62.6152 81.6065 64.3649 80.066C66.2813 78.4005 66.4479 75.4444 64.6565 73.654L52.8251 61.5796C51.117 59.8309 48.2841 59.8309 46.5344 61.5796L40.7853 67.367Z" fill="white"/>
<path d="M99.5261 71.9886H91.819V38.2634H105.442C107.025 38.2634 108.483 38.5965 109.899 39.2211C111.274 39.8456 112.482 40.7199 113.524 41.8025C114.565 42.885 115.357 44.1341 115.94 45.5497C116.523 46.9653 116.815 48.4642 116.815 50.0048C116.815 51.5453 116.523 53.0442 115.94 54.4598C115.357 55.8754 114.524 57.1245 113.524 58.2071C112.482 59.2896 111.274 60.1223 109.899 60.7885C108.525 61.413 107.025 61.7461 105.442 61.7461H99.5261V71.9886ZM105.484 54.0018C105.942 54.0018 106.4 53.8769 106.858 53.6687C107.317 53.4189 107.691 53.1275 108.025 52.7527C108.358 52.378 108.65 51.9617 108.816 51.462C109.025 51.004 109.108 50.5044 109.108 50.0048C109.108 49.5051 109.025 49.0471 108.816 48.5475C108.608 48.0895 108.358 47.6315 108.025 47.2568C107.691 46.8821 107.317 46.5906 106.858 46.3408C106.4 46.091 105.983 46.0077 105.484 46.0077H99.5678V54.0018H105.484Z" fill="white"/>
<path d="M145.602 71.9886H123.147V38.2634H145.602V45.4664H130.855V51.3788H142.853V58.5818H130.855V64.7855H145.602V71.9886Z" fill="white"/>
<path d="M163.849 38.2634H170.473L185.221 71.9886H180.263C179.764 71.9886 179.264 71.9053 178.764 71.7804C178.305 71.6555 177.847 71.4473 177.431 71.1975C177.014 70.9477 176.639 70.6146 176.306 70.2398C175.972 69.8651 175.723 69.4488 175.514 68.9908L173.848 65.2435H160.433L158.85 68.9908C158.642 69.4071 158.392 69.8235 158.059 70.1566C157.725 70.5313 157.35 70.8228 156.934 71.1142C156.517 71.4057 156.059 71.6138 155.559 71.7387C155.059 71.9053 154.601 71.9469 154.101 71.9469H149.102L163.849 38.2634ZM163.558 58.2487H170.765L167.807 51.1706C167.682 50.8375 167.557 50.546 167.474 50.2546C167.39 49.9631 167.349 49.7133 167.266 49.5051C167.182 49.2553 167.182 49.0055 167.141 48.7973C167.099 49.0055 167.057 49.2553 167.016 49.5468C166.974 49.755 166.891 50.0048 166.807 50.2962C166.724 50.5877 166.599 50.8791 166.474 51.1706L163.558 58.2487Z" fill="white"/>
<path d="M196.636 71.9886H188.929V38.2634H202.177C203.468 38.2634 204.635 38.43 205.676 38.7631C206.759 39.0961 207.717 39.5541 208.592 40.0954C209.467 40.6367 210.217 41.3029 210.884 42.0523C211.55 42.8017 212.092 43.6345 212.55 44.5088C213.008 45.3832 213.342 46.2575 213.55 47.2152C213.758 48.1728 213.883 49.0471 213.883 49.9631C213.883 50.8375 213.8 51.7535 213.592 52.6278C213.383 53.5022 213.092 54.3765 212.675 55.2093C212.258 56.042 211.717 56.8747 211.009 57.6241C210.342 58.4152 209.509 59.123 208.551 59.7892L217.549 71.9469H211.134H211.009C210.884 71.9469 210.634 71.9053 210.3 71.8637C209.967 71.822 209.592 71.6971 209.176 71.5306C208.759 71.364 208.301 71.1142 207.842 70.7395C207.384 70.4064 206.926 69.9068 206.509 69.3239L200.844 61.6628H196.636V71.9886ZM202.593 54.0018C203.051 54.0018 203.51 53.8769 203.968 53.6687C204.426 53.4189 204.801 53.1275 205.134 52.7527C205.468 52.378 205.759 51.9617 205.926 51.462C206.134 51.004 206.218 50.5044 206.218 50.0048C206.218 49.5051 206.134 49.0471 205.926 48.5475C205.718 48.0895 205.468 47.6315 205.134 47.2568C204.801 46.8821 204.426 46.5906 203.968 46.3408C203.51 46.091 203.093 46.0077 202.593 46.0077H196.636V54.0018H202.593Z" fill="white"/>
<path d="M221.757 71.9886V38.2634H229.464V64.7855H242.795V71.9886H221.757Z" fill="white"/>
<path d="M258.876 45.6746C258.459 45.6746 258.085 45.7162 257.668 45.7995C257.293 45.8828 256.96 45.9661 256.626 46.1326C256.335 46.2991 256.085 46.4657 255.918 46.7155C255.752 46.9653 255.668 47.2151 255.668 47.5482C255.668 48.0478 255.793 48.4226 256.043 48.714C256.293 49.0055 256.668 49.2553 257.168 49.4635C257.668 49.6717 258.293 49.8798 259.084 50.088C259.834 50.2962 260.751 50.5876 261.751 50.9207C263.042 51.3787 264.25 51.8784 265.333 52.5445C266.417 53.2107 267.333 53.9185 268.083 54.7929C268.833 55.6672 269.416 56.6249 269.874 57.6658C270.291 58.7483 270.499 59.9141 270.499 61.2465C270.499 62.8703 270.166 64.3691 269.458 65.7431C268.75 67.1171 267.833 68.2829 266.708 69.2406C265.542 70.1982 264.209 70.9893 262.709 71.5305C261.209 72.0718 259.626 72.3216 258.043 72.3216C256.668 72.3216 255.335 72.1134 254.085 71.6971C252.835 71.2807 251.711 70.7395 250.669 69.99C249.628 69.2406 248.711 68.4078 247.919 67.3669C247.128 66.3677 246.503 65.2435 246.086 64.0777L248.544 62.6621C248.919 62.4539 249.336 62.2457 249.794 62.1208C250.252 61.9959 250.711 61.9126 251.127 61.9126C251.794 61.9126 252.419 62.0375 252.96 62.329C253.502 62.6204 254.044 62.9119 254.543 63.245C255.043 63.5781 255.585 63.8695 256.127 64.161C256.668 64.4524 257.293 64.5773 258.001 64.5773C258.459 64.5773 259.001 64.4941 259.543 64.3692C260.084 64.2026 260.626 63.9944 261.084 63.703C261.542 63.4115 261.959 63.0784 262.292 62.6621C262.625 62.2457 262.75 61.7461 262.75 61.2048C262.75 60.7052 262.626 60.2472 262.334 59.9141C262.042 59.581 261.667 59.2896 261.167 59.0397C260.667 58.7899 260.084 58.5817 259.459 58.3736C258.834 58.1654 258.126 57.9156 257.418 57.6241C256.252 57.1661 255.127 56.7081 254.002 56.2085C252.877 55.7089 251.877 55.0427 250.961 54.2932C250.086 53.5438 249.336 52.6278 248.794 51.5036C248.253 50.4211 247.961 49.0471 247.961 47.4649C247.961 45.9244 248.253 44.5921 248.878 43.4263C249.503 42.2604 250.336 41.2612 251.336 40.4285C252.335 39.5957 253.502 38.9712 254.835 38.5548C256.127 38.1385 257.501 37.8887 258.876 37.8887C259.876 37.8887 260.876 38.0552 261.792 38.3883C262.75 38.7214 263.625 39.1794 264.5 39.7207C265.333 40.2619 266.125 40.8865 266.875 41.5526C267.625 42.2604 268.291 42.9683 268.875 43.6761L266.5 45.6746C266.042 46.091 265.542 46.3824 265.042 46.549C264.542 46.7155 263.959 46.7988 263.334 46.7988C262.834 46.7988 262.376 46.7155 262.001 46.5906C261.626 46.4657 261.251 46.3408 260.959 46.1742C260.626 46.0077 260.293 45.8828 259.959 45.7579C259.626 45.7162 259.251 45.6746 258.876 45.6746Z" fill="white"/>
<path d="M308.702 71.9886H305.785L285.414 42.885C285.33 42.8017 285.289 42.6768 285.205 42.5519C285.164 42.427 285.122 42.3021 285.08 42.1772C284.997 42.0523 284.955 41.8858 284.955 41.7608V72.0302H282.039V38.3051H284.081C284.705 38.3051 285.205 38.3883 285.58 38.5549C285.955 38.7214 286.247 38.9712 286.497 39.3043L305.119 65.993C305.244 66.1595 305.327 66.3261 305.411 66.5343C305.494 66.7008 305.577 66.8673 305.619 67.0339C305.702 67.2004 305.744 67.367 305.785 67.5752V38.2634H308.702V71.9886Z" fill="white"/>
<path d="M337.072 71.9886H316.95V38.2634H337.072V41.2196H319.908V53.5022H333.781V56.4583H319.908V69.074H337.072V71.9886Z" fill="white"/>
<path d="M340.197 41.2196V38.2634H365.359V41.2196H354.236V71.9886H351.278V41.2196H340.197Z" fill="white"/>
<path d="M380.899 66.4926C380.982 66.6592 381.024 66.8673 381.107 67.0755C381.149 67.2837 381.19 67.5335 381.232 67.7417C381.274 67.9915 381.315 68.1997 381.357 68.4495C381.357 68.1997 381.399 67.9915 381.44 67.7417C381.482 67.5335 381.524 67.3253 381.565 67.1172C381.649 66.909 381.69 66.7008 381.774 66.4926L393.397 39.9705C393.605 39.4709 393.98 39.0545 394.438 38.7214C394.896 38.43 395.438 38.2634 396.021 38.2634H397.354L390.689 53.5438L396.563 66.4926C396.646 66.6592 396.688 66.8673 396.771 67.0755C396.854 67.2837 396.854 67.5335 396.896 67.7417C396.938 67.9915 396.979 68.1997 397.021 68.4495C397.021 68.1997 397.063 67.9915 397.104 67.7417C397.146 67.5335 397.188 67.3253 397.229 67.1172C397.271 66.909 397.354 66.7008 397.438 66.4926L409.019 39.9705C409.228 39.4709 409.602 39.0545 410.061 38.7214C410.519 38.43 411.061 38.2634 411.644 38.2634H412.977L398.229 71.9886H395.73L389.856 59.0814C389.689 58.665 389.564 58.2903 389.522 57.9572C389.439 57.6242 389.439 57.3327 389.439 57.0829C389.439 56.8747 389.439 56.6665 389.481 56.5416C389.481 56.4167 389.522 56.2918 389.564 56.2085L382.648 72.0302H380.149L364.693 38.3051H366.026C366.609 38.3051 367.151 38.4716 367.609 38.7631C368.067 39.0961 368.442 39.4709 368.651 39.9705L380.899 66.4926Z" fill="white"/>
<path d="M410.894 55.126C410.894 52.7527 411.352 50.5044 412.227 48.4226C413.144 46.3408 414.352 44.5088 415.935 42.9266C417.518 41.3445 419.351 40.137 421.434 39.221C423.517 38.305 425.767 37.8887 428.141 37.8887C430.516 37.8887 432.766 38.3467 434.849 39.221C436.932 40.137 438.765 41.3445 440.348 42.9266C441.889 44.4672 443.139 46.2991 444.055 48.4226C444.972 50.5044 445.389 52.7527 445.389 55.126C445.389 57.4992 444.93 59.7476 444.055 61.8294C443.181 63.9111 441.931 65.7431 440.348 67.3253C438.806 68.8658 436.973 70.1149 434.849 71.0309C432.766 71.9469 430.516 72.3633 428.141 72.3633C425.767 72.3633 423.517 71.9053 421.434 71.0309C419.351 70.1565 417.518 68.9075 415.935 67.3253C414.352 65.7431 413.144 63.9528 412.227 61.8294C411.352 59.7476 410.894 57.4992 410.894 55.126ZM413.852 55.126C413.852 56.4583 414.019 57.7074 414.352 58.9148C414.685 60.1223 415.185 61.2881 415.81 62.329C416.435 63.4115 417.185 64.3691 418.06 65.2019C418.934 66.0762 419.893 66.8257 420.976 67.4502C422.017 68.0747 423.184 68.5744 424.392 68.9075C425.6 69.2406 426.892 69.4071 428.183 69.4071C429.516 69.4071 430.766 69.2406 431.974 68.9075C433.182 68.5744 434.349 68.0747 435.39 67.4502C436.432 66.8257 437.432 66.0762 438.306 65.2019C439.181 64.3275 439.931 63.3699 440.556 62.329C441.181 61.2464 441.681 60.1223 442.014 58.9148C442.347 57.7074 442.514 56.4167 442.514 55.126C442.514 53.1691 442.139 51.2955 441.389 49.5467C440.639 47.798 439.598 46.2991 438.306 45.0084C437.015 43.7177 435.515 42.6768 433.765 41.9274C432.016 41.1779 430.183 40.8032 428.183 40.8032C426.85 40.8032 425.6 40.9697 424.392 41.3028C423.184 41.6359 422.017 42.1355 420.976 42.7601C419.934 43.3846 418.934 44.1341 418.06 45.0084C417.185 45.8828 416.435 46.8404 415.81 47.8813C415.185 48.9638 414.727 50.088 414.352 51.2955C414.019 52.5445 413.852 53.7936 413.852 55.126Z" fill="white"/>
<path d="M455.054 71.9886H452.096V38.2634H463.927C465.26 38.2634 466.469 38.5132 467.635 39.0129C468.76 39.5125 469.76 40.1787 470.635 41.053C471.509 41.9274 472.176 42.9267 472.676 44.0508C473.176 45.2166 473.426 46.4241 473.426 47.7148C473.426 48.8806 473.218 50.0048 472.843 51.0873C472.468 52.1698 471.926 53.1275 471.218 54.0018C470.51 54.8762 469.676 55.584 468.718 56.1253C467.76 56.6665 466.677 57.0413 465.552 57.1662L476.717 72.0302H475.342C473.717 72.0302 472.551 71.4473 471.759 70.2399L461.928 57.1662H455.095V71.9886H455.054ZM455.054 41.2196V54.21H463.927C464.802 54.21 465.677 54.0435 466.469 53.7104C467.26 53.3773 467.968 52.9193 468.552 52.3364C469.135 51.7535 469.593 51.0457 469.968 50.2546C470.301 49.4635 470.468 48.6308 470.468 47.7148C470.468 46.8404 470.301 45.9661 469.968 45.2166C469.635 44.4255 469.176 43.7594 468.552 43.1765C467.968 42.5936 467.26 42.1356 466.469 41.7608C465.677 41.4278 464.844 41.2612 463.927 41.2612H455.054V41.2196Z" fill="white"/>
<path d="M484.716 71.9886H481.758V38.2634H484.716V71.9886ZM500.088 40.0954C500.588 39.5541 501.088 39.0961 501.63 38.7631C502.171 38.43 502.838 38.2634 503.629 38.2634H505.546L491.756 53.7936C491.59 54.0018 491.423 54.1267 491.298 54.2516C491.173 54.3765 491.09 54.4598 491.006 54.5014C490.923 54.5847 490.84 54.5847 490.756 54.6264C490.84 54.668 490.881 54.7096 491.006 54.7513C491.09 54.8345 491.173 54.8762 491.298 55.0011C491.423 55.0844 491.59 55.2509 491.756 55.4174L506.504 71.9469H504.421C503.629 71.9469 502.963 71.7804 502.421 71.4473C501.88 71.1142 501.338 70.6978 500.88 70.1566L487.799 55.2925C487.674 55.126 487.549 55.0011 487.424 54.9178C487.299 54.8345 487.215 54.7513 487.132 54.7096C487.049 54.6264 486.965 54.6264 486.882 54.5847C486.965 54.5847 487.049 54.5431 487.132 54.4598C487.215 54.4182 487.299 54.3349 487.424 54.2516C487.549 54.1684 487.674 54.0018 487.84 53.8353L500.088 40.0954Z" fill="white"/>
</svg>
