<svg width="26" height="24" viewBox="0 0 26 24" fill="none" xmlns="http://www.w3.org/2000/svg">
<path d="M24.8109 5.60075C24.5273 4.53322 23.692 3.69246 22.6314 3.40714C20.7089 2.88867 13 2.88867 13 2.88867C13 2.88867 5.2912 2.88867 3.36869 3.40714C2.30806 3.69251 1.47272 4.53322 1.1892 5.60075C0.674072 7.53572 0.674072 11.5729 0.674072 11.5729C0.674072 11.5729 0.674072 15.61 1.1892 17.545C1.47272 18.6125 2.30806 19.4182 3.36869 19.7035C5.2912 20.222 13 20.222 13 20.222C13 20.222 20.7088 20.222 22.6314 19.7035C23.692 19.4182 24.5273 18.6125 24.8109 17.545C25.326 15.61 25.326 11.5729 25.326 11.5729C25.326 11.5729 25.326 7.53572 24.8109 5.60075ZM10.4788 15.2383V7.90744L16.9219 11.5729L10.4788 15.2383Z" fill="white"/>
</svg>
